<?xml version="1.0" encoding="utf-8"?>
<!-- Generator: Adobe Illustrator 16.2.0, SVG Export Plug-In . SVG Version: 6.00 Build 0)  -->
<!DOCTYPE svg PUBLIC "-//W3C//DTD SVG 1.0//EN" "http://www.w3.org/TR/2001/REC-SVG-20010904/DTD/svg10.dtd">
<svg version="1.0" xmlns="http://www.w3.org/2000/svg" xmlns:xlink="http://www.w3.org/1999/xlink" x="0px" y="0px" width="600px"
	 height="600px" viewBox="0 0 600 600" enable-background="new 0 0 600 600" xml:space="preserve">
<g id="Layer_1">
	<path d="M299.004,26.764c-151.095,0-272.758,122.971-272.758,272.758c0,151.09,121.664,272.761,272.758,272.761
		c149.79,0,272.763-121.671,272.763-272.761C571.767,149.735,448.794,26.764,299.004,26.764L299.004,26.764z M478.879,245.886
		l-8.5,7.197c-7.852,3.924-16.352,5.229-23.551,6.542c-9.15,0.649-18.97,0.649-28.777,0.649c-9.16,0-19.626,0-28.127,1.313
		c-8.508,0.649-17.001,1.962-23.551,7.191c-0.649,0-0.649,0-1.958,1.313c0,0-0.66,0-0.66,0.65v1.312v7.193
		c0.66,4.579,0.66,9.808,0.66,13.734l3.267,32.052c1.967,10.466,3.268,22.234,3.268,32.7c0.66,10.467,1.974,22.242,1.974,32.709
		c0,10.469,0,20.936-1.313,31.404c-0.66,9.808-2.618,18.957-5.886,28.767c-1.969,8.508-6.542,17.009-11.775,24.208
		c-1.309,1.309-1.958,3.27-3.275,5.236c-0.648,0-0.648,1.955-1.958,1.955c0,1.309-1.309,1.309-1.309,2.618l-3.268,2.618
		c-2.615,5.893-5.885,9.816-10.467,13.741l-11.126,9.81c-4.573,3.268-8.49,5.226-13.074,6.542
		c-8.505,2.607-17.66,2.607-26.165,0.649c-8.504-1.966-17.009-5.883-24.201-11.775c-7.851-5.226-13.739-12.425-18.317-19.619
		c-3.926-7.199-7.197-17.006-8.5-25.517c0-9.15,1.304-17.658,5.233-25.502c3.268-5.891,8.5-11.123,13.734-15.7
		c6.539-5.232,13.081-9.16,20.28-11.775c7.193-3.267,15.039-3.924,22.24-3.924c6.533,0,13.734,3.275,18.961,7.199
		c5.236,5.226,9.81,13.733,10.467,22.234c1.309,4.584,0,9.81-1.956,15.043c-1.966,3.274-4.584,7.199-8.511,10.466
		c-3.265,1.959-7.191,5.233-11.77,7.199c-1.962,1.302-3.267,1.302-5.229,1.961c-0.658,0-0.658,0-0.658,0h-1.304h-1.963
		c-1.312-0.659-2.617-0.659-3.275-1.961c-1.304-1.966-3.266-3.921-3.266-6.539c-1.313-0.66-1.313-1.966-1.313-2.626v-4.565
		c1.313-3.275,5.237-6.545,7.854-9.168c0.65-2.618,0.65-5.226,0.65-7.844c0-0.657,0-0.657,0-0.657H290.5c0,0-1.305,0-1.964-1.309
		c-1.962,0-5.229-1.299-7.191,0c-4.58,0-8.504,1.966-11.779,5.233c-3.267,4.576-5.229,8.5-6.535,13.084
		c-1.312,5.226-1.312,10.47,0,15.692c0,5.243,1.963,9.168,5.229,13.733c1.963,3.927,6.542,8.511,11.771,9.168
		c5.239,2.618,11.78,2.618,17.667,1.299c7.846-1.956,13.729-5.226,18.964-9.81c5.883-3.922,11.124-10.467,13.734-15.692
		c4.581-6.539,6.542-13.73,8.508-20.933c2.618-8.508,4.574-17.009,5.233-25.51c1.309-8.5,1.309-17.665,1.309-27.475v-28.127
		l-3.274-28.777c-0.649-9.807-1.958-18.317-3.919-27.47c-1.314-8.506-1.967-15.698-4.582-24.203c0-1.962-0.659-4.579-0.659-5.237
		v-3.267c0,0,0-1.304-1.299-1.304c0,0-1.316,0-1.316-0.658c-3.925-2.617-9.15-1.305-14.386-1.305
		c-1.956,1.305-4.584,1.305-6.54,1.963l-0.659,1.304h-1.304c0,0,0,0,0,0.658c-1.312,1.304-1.312,2.609-1.312,4.571
		c-1.964,5.237-3.269,10.467-3.927,15.705c-1.962,11.773-4.571,22.234-7.192,32.701c-2.617,10.467-6.542,20.276-11.771,28.776
		l-9.808,10.467c-1.964,1.309-3.275,1.309-5.239,1.966c-0.658,1.31-3.266,1.31-3.924,1.961c-3.267,1.314-6.542,2.618-9.81,3.275
		c-12.43,3.265-25.509,4.573-37.939,3.265c-11.772-1.307-22.893-3.922-34.014-8.501c-10.463-3.922-19.622-10.466-29.435-17.658
		c-8.5-6.539-15.696-13.733-22.238-22.241l-9.155-13.085c-2.621-3.924-4.584-7.849-5.233-13.733
		c-2.617-9.154-2.617-19.622-1.309-29.43c1.958-9.164,5.234-19.63,9.813-28.131c5.229-7.846,10.463-16.351,17.66-21.583l9.808-5.888
		c2.617-1.309,5.888-2.613,9.159-2.613c7.197-1.967,15.047-2.622,23.547-2.622c8.504-1.308,16.354-1.308,26.164,0
		c6.542,0,15.046,0.655,20.935,2.622c3.271,1.304,5.233,2.613,7.846,4.575c0.655,1.309,2.617,1.962,2.617,3.926
		c0,1.308,0,2.616,0,2.616c0,1.962-0.654,2.617-0.654,5.229c-1.962,1.962-3.271,3.93-6.537,5.892
		c-3.93,4.575-10.468,5.229-17.009,6.539c-7.197,1.308-15.697,1.308-22.894,1.308h-23.546c-5.888,0.654-13.739,2.617-18.972,5.888
		l-6.542,7.851c-1.958,2.612-2.613,5.888-3.92,9.154c-1.313,5.238-1.963,10.468-1.963,17.009c0,5.229,0.65,10.468,3.271,15.697
		c0.654,4.578,3.925,9.813,7.197,13.738c3.271,4.576,6.537,8.5,10.462,11.768c4.58,3.275,8.504,6.542,13.739,9.817
		c4.575,2.615,9.808,5.233,15.042,7.191c5.233,1.969,10.468,3.268,17.005,3.924c5.234,1.31,10.468,1.31,15.701,1.31
		c5.233,0,10.463,0,15.696-1.966c3.926-1.299,9.159-2.608,13.739-5.226c3.926-2.618,8.504-5.233,11.771-8.509
		c3.266-4.576,5.229-8.5,7.199-13.076c1.964-5.233,3.268-11.124,3.268-17.009c0.658-7.192,0-14.393-1.304-21.584l-0.659-1.313
		c0,0,0,0,0-1.304c0,0,0,0-1.305,0h-3.933c-2.608-0.658-5.884,0-7.846,0c-3.92,1.304-8.5,2.617-12.425,5.229
		c-3.271,2.617-5.234,5.237-6.542,8.504c-0.655,4.579-0.655,8.504,0,13.082c0,1.966,1.308,5.235,1.962,7.194
		c1.309,1.316,2.617,1.966,2.617,3.274l0.654,0.649c0,0,0,0-0.654,1.309l-1.308,1.31c-3.926,3.265-8.5,5.233-12.43,5.893
		c-4.575,1.299-8.5,0-11.771-1.969c-3.271-1.958-5.233-3.924-7.195-7.191c-4.576-8.503-5.234-18.313-3.271-26.818
		c1.962-10.467,8.504-18.971,17.008-24.86c7.192-5.228,16.351-8.499,24.855-10.466c9.813-3.267,18.968-6.537,26.814-13.079
		c0.658-0.655,1.962-0.655,3.275-1.964c0-1.304,0.649-1.962,0.649-3.266c1.313-3.271,1.313-5.235,1.313-8.504
		c0-3.271,0-5.888,0.65-9.159c0-3.271,1.313-6.542,1.313-9.81c1.962-14.392,5.229-28.13,6.541-43.173
		c0.65-7.196,1.963-15.046,1.963-22.238v-8.504c0-6.542,1.304-12.426,1.304-18.969c0.658-5.233,0.658-11.775,1.962-17.008
		c0-0.651,0-0.651,0-0.651c0-4.583,0-8.504,1.963-13.083c1.304-1.963,1.962-3.926,5.229-5.233c1.964-0.654,5.238,0,8.503,0
		c3.927,1.308,8.511,1.962,12.436,4.579c1.301,0,3.268,0.654,4.576,0.654h0.649c0,1.308,0,1.308,0,1.308v3.271
		c1.316,1.963,1.316,5.233,1.316,8.504v16.352c-1.316,13.083-3.927,25.509-7.202,37.285l-9.809,37.935
		c-1.967,12.429-3.922,25.509-5.231,39.247v9.159c0,0,0,1.304,0,2.613c0,0,0,0,0,0.655c0,1.308,0,1.308,1.31,1.308h3.922h20.275
		c13.736-1.308,27.479-1.962,41.861-4.575c13.736-0.658,28.776-3.271,42.518-5.233c7.194-0.659,13.736-1.964,20.928-3.271
		c3.275,0,6.543-0.654,9.81-0.654c7.199,0,15.051-1.308,20.934,0.654c4.584,0,11.775,2.613,11.775,7.846
		C482.804,240.653,480.838,243.27,478.879,245.886z"/>
</g>
<g id="Layer_2" display="none">
	<g display="inline">
		<g>
			<path d="M418.8,126.294c-28.062-17.467-54.533-24.353-80.998-41.819c-16.411-11.117-39.172-37.585-58.24-60.351
				c-3.697,36.527-14.814,51.348-27.518,61.938c-27,21.176-43.938,27.529-67.234,40.232
				c-19.583,10.059-125.99,73.583-125.99,210.158c0,136.58,114.875,237.158,242.45,237.158c127.582,0,238.226-92.64,238.226-232.922
				S435.737,136.881,418.8,126.294z M96.817,230.522c-4.234-7.413,1.589-23.824,21.171-45.525c1.818-2.01,3.998-4.104,6.453-6.245
				c26.92-30.002,64.016-50.426,75.607-56.222c5.289-2.645,28.584-13.766,52.402-31.765c14.295-11.116,24.88-21.701,29.649-56.642
				c0.41,1.376,0.788,2.711,1.139,4.031c6.141,19.403,5.208,29.583,5.208,34.083c0,4.763-2.64,17.471-11.115,23.824
				c-3.707,2.648-4.764,4.763-4.764,5.292c0,2.12,4.764,3.706,4.764,8.47c0,5.825-2.643,17.47-30.699,45.528
				c-28.055,28.055-68.29,52.936-99.523,68.288C115.874,238.99,101.051,237.933,96.817,230.522z M421.848,523.789
				c-2.64,2.656-26.987,19.592-55.583,22.232c-28.58,2.65-67.226,4.239-90.518-16.937c-3.704-3.707-2.647-9.003,0-11.118
				c2.649-2.114,4.764-3.703,7.945-3.703c3.173,0,2.64,0,4.23,1.058c10.586,8.468,26.465,15.353,60.348,15.353
				s57.705-9.525,68.292-17.469c4.762-3.706,6.879-0.524,7.41,1.583C424.504,516.91,425.555,520.082,421.848,523.789z
				 M329.209,475.615c5.828-5.286,15.354-13.757,24.348-17.464c9.003-3.705,13.773-3.18,22.242-3.18s17.469,0.534,23.816,4.765
				c6.359,4.239,10.06,13.765,12.182,19.061c2.114,5.294,0,8.469-4.239,10.591c-3.703,2.116-4.229,1.051-7.942-5.828
				c-3.705-6.877-6.879-13.765-25.405-13.765c-18.529,0-24.357,6.362-33.351,13.765c-8.994,7.419-12.176,10.06-15.357,5.828
				C322.336,485.15,323.388,480.912,329.209,475.615z M469.495,479.853c-19.061-1.581-57.173-60.871-81.521-61.936
				c-30.702-1.058-97.412,64.06-149.81,64.06c-31.766,0-41.292-4.769-51.884-11.647c-15.879-11.127-23.818-28.064-23.291-51.348
				c0.53-41.294,39.172-79.941,87.878-80.473c61.937-0.523,104.814,61.414,136.047,60.879
				c26.466-0.524,77.285-52.403,102.168-52.403c26.473,0,33.883,27.528,33.883,43.936c0,16.412-5.296,46.057-18.003,64.586
				C492.255,474.033,484.318,480.912,469.495,479.853z"/>
		</g>
	</g>
</g>
</svg>
