<svg version="1" xmlns="http://www.w3.org/2000/svg" width="600" height="600" viewBox="0 0 600 600"><path d="M299.004 26.764c-151.095 0-272.758 122.97-272.758 272.758 0 151.09 121.664 272.76 272.758 272.76 149.79 0 272.763-121.67 272.763-272.76 0-149.787-122.973-272.758-272.763-272.758zM478.88 245.886l-8.5 7.197c-7.853 3.924-16.353 5.23-23.552 6.542-9.15.65-18.97.65-28.777.65-9.16 0-19.625 0-28.126 1.312-8.508.65-17 1.962-23.55 7.19-.65 0-.65 0-1.96 1.314 0 0-.66 0-.66.65v8.506c.66 4.58.66 9.808.66 13.734l3.268 32.052c1.967 10.466 3.268 22.234 3.268 32.7.66 10.467 1.974 22.242 1.974 32.71s0 20.935-1.313 31.403c-.66 9.808-2.617 18.957-5.885 28.767-1.97 8.508-6.542 17.01-11.775 24.208-1.31 1.31-1.958 3.27-3.275 5.236-.648 0-.648 1.955-1.958 1.955 0 1.31-1.31 1.31-1.31 2.62l-3.267 2.617c-2.615 5.893-5.885 9.816-10.467 13.74l-11.126 9.81c-4.573 3.27-8.49 5.227-13.074 6.543-8.505 2.607-17.66 2.607-26.165.65-8.504-1.967-17.01-5.884-24.2-11.776-7.852-5.226-13.74-12.425-18.318-19.62-3.926-7.198-7.197-17.005-8.5-25.516 0-9.15 1.304-17.658 5.233-25.502 3.268-5.89 8.5-11.123 13.734-15.7 6.54-5.232 13.08-9.16 20.28-11.775 7.193-3.266 15.04-3.923 22.24-3.923 6.533 0 13.734 3.275 18.96 7.2 5.237 5.225 9.81 13.732 10.468 22.233 1.31 4.584 0 9.81-1.956 15.043-1.967 3.274-4.585 7.2-8.512 10.466-3.265 1.958-7.19 5.232-11.77 7.198-1.962 1.302-3.267 1.302-5.23 1.96h-3.923c-1.312-.658-2.617-.658-3.275-1.96-1.305-1.966-3.267-3.92-3.267-6.54-1.313-.66-1.313-1.965-1.313-2.625v-4.565c1.313-3.275 5.237-6.545 7.854-9.168.65-2.618.65-5.226.65-7.844v-.657H290.5s-1.305 0-1.964-1.31c-1.962 0-5.23-1.3-7.19 0-4.58 0-8.505 1.966-11.78 5.233-3.267 4.576-5.23 8.5-6.535 13.084-1.31 5.226-1.31 10.47 0 15.692 0 5.242 1.964 9.167 5.23 13.732 1.963 3.927 6.542 8.51 11.77 9.168 5.24 2.618 11.78 2.618 17.668 1.3 7.846-1.957 13.73-5.227 18.964-9.81 5.883-3.923 11.124-10.468 13.734-15.693 4.58-6.54 6.542-13.73 8.508-20.933 2.618-8.508 4.574-17.01 5.233-25.51 1.31-8.5 1.31-17.665 1.31-27.475V364.27l-3.275-28.777c-.65-9.807-1.958-18.317-3.92-27.47-1.313-8.506-1.966-15.698-4.58-24.203 0-1.962-.66-4.58-.66-5.237v-3.267s0-1.304-1.3-1.304c0 0-1.315 0-1.315-.658-3.925-2.617-9.15-1.305-14.386-1.305-1.955 1.306-4.583 1.306-6.54 1.964l-.658 1.304h-1.304v.658c-1.312 1.304-1.312 2.61-1.312 4.57-1.964 5.238-3.27 10.468-3.927 15.706-1.963 11.773-4.572 22.234-7.193 32.7-2.617 10.468-6.542 20.277-11.77 28.777l-9.81 10.466c-1.963 1.31-3.274 1.31-5.238 1.966-.66 1.31-3.267 1.31-3.925 1.96-3.267 1.315-6.542 2.62-9.81 3.276-12.43 3.265-25.51 4.573-37.94 3.265-11.77-1.307-22.892-3.922-34.013-8.5-10.463-3.923-19.622-10.467-29.435-17.66-8.5-6.538-15.696-13.732-22.238-22.24l-9.156-13.085c-2.62-3.924-4.584-7.85-5.233-13.733-2.616-9.154-2.616-19.622-1.308-29.43 1.958-9.164 5.234-19.63 9.813-28.13 5.23-7.847 10.463-16.352 17.66-21.584l9.808-5.887c2.617-1.31 5.888-2.613 9.16-2.613 7.196-1.967 15.046-2.622 23.546-2.622 8.503-1.308 16.353-1.308 26.163 0 6.542 0 15.046.655 20.935 2.622 3.27 1.304 5.233 2.613 7.846 4.575.655 1.31 2.617 1.962 2.617 3.926v2.617c0 1.962-.653 2.617-.653 5.23-1.962 1.96-3.27 3.93-6.537 5.89-3.93 4.576-10.468 5.23-17.01 6.54-7.196 1.308-15.696 1.308-22.893 1.308H172.11c-5.887.654-13.738 2.617-18.97 5.888l-6.543 7.85c-1.958 2.613-2.613 5.89-3.92 9.155-1.313 5.238-1.963 10.468-1.963 17.01 0 5.228.65 10.467 3.27 15.696.655 4.578 3.926 9.813 7.198 13.738 3.27 4.576 6.537 8.5 10.462 11.768 4.58 3.275 8.504 6.542 13.74 9.817 4.574 2.615 9.807 5.233 15.04 7.19 5.234 1.97 10.47 3.27 17.006 3.925 5.234 1.31 10.468 1.31 15.7 1.31 5.234 0 10.464 0 15.697-1.966 3.926-1.3 9.16-2.608 13.74-5.226 3.925-2.618 8.503-5.233 11.77-8.51 3.266-4.575 5.23-8.5 7.2-13.075 1.963-5.233 3.267-11.124 3.267-17.01.658-7.19 0-14.392-1.304-21.583l-.66-1.313v-1.305h-5.237c-2.608-.658-5.884 0-7.846 0-3.92 1.304-8.5 2.617-12.425 5.23-3.27 2.616-5.234 5.236-6.542 8.503-.655 4.58-.655 8.504 0 13.082 0 1.966 1.308 5.235 1.962 7.194 1.31 1.316 2.617 1.966 2.617 3.274l.653.65-.654 1.308-1.31 1.31c-3.925 3.265-8.5 5.233-12.43 5.893-4.574 1.298-8.5 0-11.77-1.97-3.27-1.958-5.233-3.924-7.195-7.19-4.576-8.504-5.234-18.314-3.27-26.82 1.96-10.466 8.503-18.97 17.007-24.86 7.192-5.227 16.35-8.498 24.855-10.465 9.813-3.267 18.968-6.537 26.814-13.08.66-.654 1.963-.654 3.276-1.963 0-1.304.65-1.962.65-3.266 1.312-3.27 1.312-5.235 1.312-8.504 0-3.27 0-5.888.65-9.16 0-3.27 1.313-6.54 1.313-9.81 1.963-14.39 5.23-28.13 6.542-43.172.65-7.196 1.963-15.046 1.963-22.238v-8.504c0-6.542 1.304-12.426 1.304-18.97.657-5.232.657-11.774 1.96-17.007v-.65c0-4.583 0-8.504 1.964-13.083 1.304-1.963 1.962-3.926 5.23-5.233 1.963-.654 5.237 0 8.502 0 3.927 1.308 8.51 1.962 12.436 4.58 1.3 0 3.268.653 4.576.653h.65v4.578c1.315 1.964 1.315 5.234 1.315 8.505v16.352c-1.316 13.083-3.927 25.51-7.202 37.285l-9.808 37.935c-1.967 12.43-3.922 25.51-5.23 39.247v12.427c0 1.308 0 1.308 1.31 1.308H334.977c13.736-1.308 27.48-1.962 41.86-4.575 13.737-.66 28.777-3.272 42.52-5.234 7.193-.66 13.735-1.964 20.927-3.27 3.275 0 6.543-.655 9.81-.655 7.2 0 15.05-1.307 20.934.655 4.583 0 11.774 2.613 11.774 7.846 0 3.273-1.966 5.89-3.925 8.506z"/></svg>